<mxfile host="www.draw.io" modified="2020-06-03T17:58:09.891Z" agent="5.0 (Windows NT 10.0; Win64; x64) AppleWebKit/537.36 (KHTML, like Gecko) Code/1.45.1 Chrome/78.0.3904.130 Electron/7.2.4 Safari/537.36" etag="3OEpiwUrgi3ZKAJhYsKs" version="13.1.14">
    <diagram id="6hGFLwfOUW9BJ-s0fimq" name="Page-1">
        <mxGraphModel dx="1533" dy="568" grid="1" gridSize="10" guides="1" tooltips="1" connect="1" arrows="1" fold="1" page="1" pageScale="1" pageWidth="827" pageHeight="1169" math="0" shadow="0">
            <root>
                <mxCell id="0"/>
                <mxCell id="1" parent="0"/>
                <mxCell id="33" value="" style="group" vertex="1" connectable="0" parent="1">
                    <mxGeometry x="80" y="40" width="320" height="160" as="geometry"/>
                </mxCell>
                <mxCell id="2" value="1" style="rounded=0;whiteSpace=wrap;html=1;fontSize=16;" vertex="1" parent="33">
                    <mxGeometry width="320" height="40" as="geometry"/>
                </mxCell>
                <mxCell id="3" value="2" style="rounded=0;whiteSpace=wrap;html=1;fontSize=16;fillColor=#ffffee;" vertex="1" parent="33">
                    <mxGeometry y="40" width="160" height="40" as="geometry"/>
                </mxCell>
                <mxCell id="4" value="3" style="rounded=0;whiteSpace=wrap;html=1;fontSize=16;fillColor=#ffffee;" vertex="1" parent="33">
                    <mxGeometry x="160" y="40" width="160" height="40" as="geometry"/>
                </mxCell>
                <mxCell id="5" value="4" style="rounded=0;whiteSpace=wrap;html=1;fontSize=16;fillColor=#FFFFdd;" vertex="1" parent="33">
                    <mxGeometry y="80" width="80" height="40" as="geometry"/>
                </mxCell>
                <mxCell id="6" value="5" style="rounded=0;whiteSpace=wrap;html=1;fontSize=16;fillColor=#FFFFdd;" vertex="1" parent="33">
                    <mxGeometry x="80" y="80" width="80" height="40" as="geometry"/>
                </mxCell>
                <mxCell id="7" value="6" style="rounded=0;whiteSpace=wrap;html=1;fontSize=16;fillColor=#FFFFdd;" vertex="1" parent="33">
                    <mxGeometry x="160" y="80" width="80" height="40" as="geometry"/>
                </mxCell>
                <mxCell id="8" value="7" style="rounded=0;whiteSpace=wrap;html=1;fontSize=16;fillColor=#FFFFdd;" vertex="1" parent="33">
                    <mxGeometry x="240" y="80" width="80" height="40" as="geometry"/>
                </mxCell>
                <mxCell id="9" value="8" style="rounded=0;whiteSpace=wrap;html=1;fontSize=16;fillColor=#FFFFcc;" vertex="1" parent="33">
                    <mxGeometry y="120" width="40" height="40" as="geometry"/>
                </mxCell>
                <mxCell id="10" value="9" style="rounded=0;whiteSpace=wrap;html=1;fontSize=16;fillColor=#FFFFcc;" vertex="1" parent="33">
                    <mxGeometry x="40" y="120" width="40" height="40" as="geometry"/>
                </mxCell>
                <mxCell id="11" value="10" style="rounded=0;whiteSpace=wrap;html=1;fontSize=16;fillColor=#FFFFcc;" vertex="1" parent="33">
                    <mxGeometry x="80" y="120" width="40" height="40" as="geometry"/>
                </mxCell>
                <mxCell id="13" value="11" style="rounded=0;whiteSpace=wrap;html=1;fontSize=16;fillColor=#FFFFcc;" vertex="1" parent="33">
                    <mxGeometry x="120" y="120" width="40" height="40" as="geometry"/>
                </mxCell>
                <mxCell id="14" value="12" style="rounded=0;whiteSpace=wrap;html=1;fontSize=16;fillColor=#FFFFcc;" vertex="1" parent="33">
                    <mxGeometry x="160" y="120" width="40" height="40" as="geometry"/>
                </mxCell>
                <mxCell id="15" value="13" style="rounded=0;whiteSpace=wrap;html=1;fontSize=16;fillColor=#FFFFcc;" vertex="1" parent="33">
                    <mxGeometry x="200" y="120" width="40" height="40" as="geometry"/>
                </mxCell>
                <mxCell id="16" value="14" style="rounded=0;whiteSpace=wrap;html=1;fontSize=16;fillColor=#FFFFcc;" vertex="1" parent="33">
                    <mxGeometry x="240" y="120" width="40" height="40" as="geometry"/>
                </mxCell>
                <mxCell id="17" value="15" style="rounded=0;whiteSpace=wrap;html=1;fontSize=16;fillColor=#FFFFcc;" vertex="1" parent="33">
                    <mxGeometry x="280" y="120" width="40" height="40" as="geometry"/>
                </mxCell>
                <mxCell id="34" value="" style="group" vertex="1" connectable="0" parent="1">
                    <mxGeometry x="80" y="280" width="320" height="160" as="geometry"/>
                </mxCell>
                <mxCell id="35" value="[0, 7]" style="rounded=0;whiteSpace=wrap;html=1;fontSize=16;" vertex="1" parent="34">
                    <mxGeometry width="320" height="40" as="geometry"/>
                </mxCell>
                <mxCell id="36" value="[0, 3]" style="rounded=0;whiteSpace=wrap;html=1;fontSize=16;fillColor=#ffffee;" vertex="1" parent="34">
                    <mxGeometry y="40" width="160" height="40" as="geometry"/>
                </mxCell>
                <mxCell id="37" value="[4, 7]" style="rounded=0;whiteSpace=wrap;html=1;fontSize=16;fillColor=#ffffee;" vertex="1" parent="34">
                    <mxGeometry x="160" y="40" width="160" height="40" as="geometry"/>
                </mxCell>
                <mxCell id="38" value="[0, 1]" style="rounded=0;whiteSpace=wrap;html=1;fontSize=16;fillColor=#FFFFdd;" vertex="1" parent="34">
                    <mxGeometry y="80" width="80" height="40" as="geometry"/>
                </mxCell>
                <mxCell id="39" value="[2, 3]" style="rounded=0;whiteSpace=wrap;html=1;fontSize=16;fillColor=#FFFFdd;" vertex="1" parent="34">
                    <mxGeometry x="80" y="80" width="80" height="40" as="geometry"/>
                </mxCell>
                <mxCell id="40" value="[4, 5]" style="rounded=0;whiteSpace=wrap;html=1;fontSize=16;fillColor=#FFFFdd;" vertex="1" parent="34">
                    <mxGeometry x="160" y="80" width="80" height="40" as="geometry"/>
                </mxCell>
                <mxCell id="41" value="[6, 7]" style="rounded=0;whiteSpace=wrap;html=1;fontSize=16;fillColor=#FFFFdd;" vertex="1" parent="34">
                    <mxGeometry x="240" y="80" width="80" height="40" as="geometry"/>
                </mxCell>
                <mxCell id="42" value="0" style="rounded=0;whiteSpace=wrap;html=1;fontSize=16;fillColor=#FFFFcc;" vertex="1" parent="34">
                    <mxGeometry y="120" width="40" height="40" as="geometry"/>
                </mxCell>
                <mxCell id="43" value="1" style="rounded=0;whiteSpace=wrap;html=1;fontSize=16;fillColor=#FFFFcc;" vertex="1" parent="34">
                    <mxGeometry x="40" y="120" width="40" height="40" as="geometry"/>
                </mxCell>
                <mxCell id="44" value="2" style="rounded=0;whiteSpace=wrap;html=1;fontSize=16;fillColor=#FFFFcc;" vertex="1" parent="34">
                    <mxGeometry x="80" y="120" width="40" height="40" as="geometry"/>
                </mxCell>
                <mxCell id="45" value="3" style="rounded=0;whiteSpace=wrap;html=1;fontSize=16;fillColor=#FFFFcc;" vertex="1" parent="34">
                    <mxGeometry x="120" y="120" width="40" height="40" as="geometry"/>
                </mxCell>
                <mxCell id="46" value="4" style="rounded=0;whiteSpace=wrap;html=1;fontSize=16;fillColor=#FFFFcc;" vertex="1" parent="34">
                    <mxGeometry x="160" y="120" width="40" height="40" as="geometry"/>
                </mxCell>
                <mxCell id="47" value="5" style="rounded=0;whiteSpace=wrap;html=1;fontSize=16;fillColor=#FFFFcc;" vertex="1" parent="34">
                    <mxGeometry x="200" y="120" width="40" height="40" as="geometry"/>
                </mxCell>
                <mxCell id="48" value="6" style="rounded=0;whiteSpace=wrap;html=1;fontSize=16;fillColor=#FFFFcc;" vertex="1" parent="34">
                    <mxGeometry x="240" y="120" width="40" height="40" as="geometry"/>
                </mxCell>
                <mxCell id="49" value="7" style="rounded=0;whiteSpace=wrap;html=1;fontSize=16;fillColor=#FFFFcc;" vertex="1" parent="34">
                    <mxGeometry x="280" y="120" width="40" height="40" as="geometry"/>
                </mxCell>
                <mxCell id="52" value="1" style="text;html=1;align=center;verticalAlign=middle;resizable=0;points=[];autosize=1;fontSize=16;" vertex="1" parent="1">
                    <mxGeometry x="449" y="50" width="20" height="20" as="geometry"/>
                </mxCell>
                <mxCell id="53" value="10-11" style="text;html=1;align=center;verticalAlign=middle;resizable=0;points=[];autosize=1;fontSize=16;" vertex="1" parent="1">
                    <mxGeometry x="429" y="90" width="60" height="20" as="geometry"/>
                </mxCell>
                <mxCell id="54" value="100-111" style="text;html=1;align=center;verticalAlign=middle;resizable=0;points=[];autosize=1;fontSize=16;" vertex="1" parent="1">
                    <mxGeometry x="424" y="130" width="70" height="20" as="geometry"/>
                </mxCell>
                <mxCell id="55" value="1000-1111" style="text;html=1;align=center;verticalAlign=middle;resizable=0;points=[];autosize=1;fontSize=16;" vertex="1" parent="1">
                    <mxGeometry x="414" y="170" width="90" height="20" as="geometry"/>
                </mxCell>
                <mxCell id="57" value="2進表現" style="text;html=1;align=center;verticalAlign=middle;resizable=0;points=[];autosize=1;fontSize=16;fontStyle=1" vertex="1" parent="1">
                    <mxGeometry x="424" y="10" width="70" height="20" as="geometry"/>
                </mxCell>
                <mxCell id="58" value="添え字" style="text;html=1;align=center;verticalAlign=middle;resizable=0;points=[];autosize=1;fontSize=16;fontStyle=1" vertex="1" parent="1">
                    <mxGeometry x="210" y="10" width="60" height="20" as="geometry"/>
                </mxCell>
                <mxCell id="60" value="" style="group" vertex="1" connectable="0" parent="1">
                    <mxGeometry x="80" y="520" width="320" height="160" as="geometry"/>
                </mxCell>
                <mxCell id="61" value="[0, 7]" style="rounded=0;whiteSpace=wrap;html=1;fontSize=16;" vertex="1" parent="60">
                    <mxGeometry width="320" height="40" as="geometry"/>
                </mxCell>
                <mxCell id="62" value="[0, 3]" style="rounded=0;whiteSpace=wrap;html=1;fontSize=16;fillColor=#ffffee;" vertex="1" parent="60">
                    <mxGeometry y="40" width="160" height="40" as="geometry"/>
                </mxCell>
                <mxCell id="63" value="[4, 7]" style="rounded=0;whiteSpace=wrap;html=1;fontSize=16;fillColor=#d5e8d4;strokeColor=#82b366;fontStyle=1;strokeWidth=2;" vertex="1" parent="60">
                    <mxGeometry x="160" y="40" width="160" height="40" as="geometry"/>
                </mxCell>
                <mxCell id="64" value="[0, 1]" style="rounded=0;whiteSpace=wrap;html=1;fontSize=16;fillColor=#FFFFdd;" vertex="1" parent="60">
                    <mxGeometry y="80" width="80" height="40" as="geometry"/>
                </mxCell>
                <mxCell id="65" value="[2, 3]" style="rounded=0;whiteSpace=wrap;html=1;fontSize=16;fillColor=#d5e8d4;strokeColor=#82b366;fontStyle=1;strokeWidth=2;" vertex="1" parent="60">
                    <mxGeometry x="80" y="80" width="80" height="40" as="geometry"/>
                </mxCell>
                <mxCell id="66" value="[4, 5]" style="rounded=0;whiteSpace=wrap;html=1;fontSize=16;fillColor=#FFFFdd;" vertex="1" parent="60">
                    <mxGeometry x="160" y="80" width="80" height="40" as="geometry"/>
                </mxCell>
                <mxCell id="67" value="[6, 7]" style="rounded=0;whiteSpace=wrap;html=1;fontSize=16;fillColor=#FFFFdd;" vertex="1" parent="60">
                    <mxGeometry x="240" y="80" width="80" height="40" as="geometry"/>
                </mxCell>
                <mxCell id="68" value="0" style="rounded=0;whiteSpace=wrap;html=1;fontSize=16;fillColor=#FFFFcc;" vertex="1" parent="60">
                    <mxGeometry y="120" width="40" height="40" as="geometry"/>
                </mxCell>
                <mxCell id="70" value="2" style="rounded=0;whiteSpace=wrap;html=1;fontSize=16;fillColor=#FFFFcc;" vertex="1" parent="60">
                    <mxGeometry x="80" y="120" width="40" height="40" as="geometry"/>
                </mxCell>
                <mxCell id="71" value="3" style="rounded=0;whiteSpace=wrap;html=1;fontSize=16;fillColor=#FFFFcc;" vertex="1" parent="60">
                    <mxGeometry x="120" y="120" width="40" height="40" as="geometry"/>
                </mxCell>
                <mxCell id="72" value="4" style="rounded=0;whiteSpace=wrap;html=1;fontSize=16;fillColor=#FFFFcc;" vertex="1" parent="60">
                    <mxGeometry x="160" y="120" width="40" height="40" as="geometry"/>
                </mxCell>
                <mxCell id="73" value="5" style="rounded=0;whiteSpace=wrap;html=1;fontSize=16;fillColor=#FFFFcc;" vertex="1" parent="60">
                    <mxGeometry x="200" y="120" width="40" height="40" as="geometry"/>
                </mxCell>
                <mxCell id="74" value="6" style="rounded=0;whiteSpace=wrap;html=1;fontSize=16;fillColor=#FFFFcc;" vertex="1" parent="60">
                    <mxGeometry x="240" y="120" width="40" height="40" as="geometry"/>
                </mxCell>
                <mxCell id="75" value="7" style="rounded=0;whiteSpace=wrap;html=1;fontSize=16;fillColor=#FFFFcc;" vertex="1" parent="60">
                    <mxGeometry x="280" y="120" width="40" height="40" as="geometry"/>
                </mxCell>
                <mxCell id="69" value="1" style="rounded=0;whiteSpace=wrap;html=1;fontSize=16;fillColor=#f8cecc;strokeColor=#b85450;fontStyle=1;strokeWidth=3;" vertex="1" parent="60">
                    <mxGeometry x="40" y="120" width="40" height="40" as="geometry"/>
                </mxCell>
                <mxCell id="93" value="[2, 3]" style="rounded=0;whiteSpace=wrap;html=1;fontSize=16;fillColor=#f8cecc;strokeColor=#b85450;fontStyle=1;strokeWidth=3;" vertex="1" parent="60">
                    <mxGeometry x="80" y="80" width="80" height="40" as="geometry"/>
                </mxCell>
                <mxCell id="94" value="[4, 7]" style="rounded=0;whiteSpace=wrap;html=1;fontSize=16;fillColor=#f8cecc;strokeColor=#b85450;fontStyle=1;strokeWidth=3;" vertex="1" parent="60">
                    <mxGeometry x="160" y="40" width="160" height="40" as="geometry"/>
                </mxCell>
            </root>
        </mxGraphModel>
    </diagram>
</mxfile>